<svg xmlns="http://www.w3.org/2000/svg" viewBox="0 0 64 64">
  <defs>
    <linearGradient id="g" x1="0" y1="0" x2="1" y2="1">
      <stop offset="0%" stop-color="#34d399"/>
      <stop offset="100%" stop-color="#0ea5e9"/>
    </linearGradient>
  </defs>
  <rect x="4" y="4" width="56" height="56" rx="12" fill="url(#g)"/>
  <g fill="#0b1220">
    <path d="M20 24h24a2 2 0 0 1 0 4H20a2 2 0 0 1 0-4z"/>
    <path d="M20 34h18a2 2 0 0 1 0 4H20a2 2 0 0 1 0-4z"/>
    <circle cx="46" cy="36" r="2.5"/>
  </g>
  <path d="M32 10c6 5 14 6 14 6s-1 16-14 22C19 32 18 16 18 16s8-1 14-6z" fill="#ffffff" fill-opacity="0.9"/>
</svg>
